<svg width="425" height="75" viewBox="0 0 425 75" fill="none" xmlns="http://www.w3.org/2000/svg">
<path fill-rule="evenodd" clip-rule="evenodd" d="M44.3965 8.67483C44.0818 7.93076 43.5801 7.28149 42.9407 6.79053C42.1561 6.29652 41.2369 6.06222 40.3127 6.12063H30.7862C29.862 6.06219 28.9429 6.29649 28.1582 6.79053C27.506 7.29368 26.9964 7.95964 26.68 8.72213L0.856034 69.7336C0.673716 70.1241 0.118004 71.3132 0.710399 72.3736C0.937786 72.7361 1.24899 73.038 1.61752 73.2537C1.98605 73.4693 2.401 73.5923 2.82703 73.6122C3.43366 73.7034 4.04566 73.754 4.65897 73.7635L6.71209 73.8185C7.42768 73.8377 8.14326 73.8377 8.83913 73.8185C9.535 73.7992 10.1241 73.7706 10.5851 73.7321L10.6399 73.7261C11.2508 73.6738 11.8472 73.5106 12.4001 73.2443C13.0374 72.8556 13.5204 72.2564 13.7661 71.5492L19.2909 57.6798C19.3019 57.6534 19.3123 57.6298 19.3221 57.6078C19.3812 57.6127 19.4568 57.621 19.5521 57.6353C21.8674 57.9317 24.4215 58.166 27.1426 58.3332C32.704 58.6648 38.28 58.6648 43.8414 58.3332C46.5624 58.1682 49.1154 57.9317 51.4845 57.6276C51.5562 57.616 51.6148 57.6089 51.6613 57.6056C51.669 57.6215 51.6766 57.6397 51.6843 57.6606L57.1735 71.5827C57.4196 72.2781 57.8979 72.8664 58.5269 73.2476C59.0799 73.5138 59.6763 73.677 60.2872 73.7294L60.3419 73.7354C60.8035 73.7739 61.4008 73.8031 62.1153 73.8218C62.4728 73.8317 62.8374 73.8366 63.2064 73.8366C63.5754 73.8366 63.9472 73.8317 64.3217 73.8218L66.4569 73.7668C67.0801 73.758 67.702 73.7075 68.3184 73.6155C68.7445 73.5955 69.1594 73.4723 69.5279 73.2566C69.8964 73.0408 70.2076 72.7389 70.4351 72.3764C71.0275 71.3165 70.4718 70.1274 70.3091 69.7826L44.3965 8.67483ZM47.7248 47.5802C46.0571 47.8002 44.2022 47.9712 42.2038 48.0867C37.724 48.3403 33.2336 48.3403 28.7539 48.0867C26.7418 47.9718 24.8957 47.8013 23.2597 47.5813L35.3792 17.0315H35.5522L47.7248 47.5802ZM109.239 46.2255V45.9258L128.821 26.1065C129.131 25.7941 130.076 24.8415 129.891 23.6057C129.82 23.125 129.453 21.9848 127.659 21.7841C126.953 21.694 126.242 21.6437 125.53 21.6334C123.897 21.596 122.135 21.5872 120.535 21.662C119.736 21.6994 119.077 21.7368 118.509 21.7786C117.829 21.8114 117.163 21.983 116.55 22.2829C116.058 22.5948 115.608 22.9693 115.211 23.3972L97.7592 41.352C97.6486 41.475 97.5192 41.5795 97.3759 41.6616C97.1542 41.7129 96.9264 41.7326 96.6992 41.7199H94.3449V4.08178C94.3449 2.86683 94.0017 1.98188 93.3239 1.45168C92.6134 0.957887 91.7578 0.71969 90.8957 0.775733H77.6462C77.0607 0.744899 76.4803 0.898744 75.9862 1.21573C75.725 1.41907 75.5069 1.6728 75.3447 1.962C75.1825 2.25121 75.0795 2.57007 75.0417 2.89983C74.9539 3.40096 74.901 3.90764 74.8835 4.41618C74.8649 4.91082 74.8554 5.42415 74.855 5.95618C74.8547 6.48822 74.8642 7.00155 74.8835 7.49618C74.9011 8.00508 74.9539 8.51213 75.0417 9.01363C75.0811 9.3423 75.1847 9.6599 75.3467 9.94817C75.5087 10.2364 75.7258 10.4897 75.9856 10.6933C76.4804 11.0106 77.0616 11.1645 77.6478 11.1333H82.1921V70.706C82.1516 71.3376 82.2924 71.9675 82.5978 72.521C82.8297 72.823 83.1228 73.0721 83.4578 73.2516C83.7928 73.4311 84.162 73.5369 84.5409 73.5622C85.1541 73.6386 85.7722 73.6975 86.3772 73.7354C87.6373 73.8119 88.9008 73.8119 90.1609 73.7354C90.7659 73.6975 91.3841 73.6386 92.0225 73.5589C92.3967 73.5315 92.7609 73.4249 93.0912 73.246C93.4214 73.0671 93.7103 72.8201 93.9387 72.521C94.2441 71.9675 94.3849 71.3376 94.3444 70.706V51.2531H96.5891C96.8125 51.2424 97.0363 51.2609 97.2549 51.3081C97.3906 51.3804 97.5128 51.4756 97.6163 51.5897L116.608 71.971C117.047 72.5 117.596 72.9264 118.216 73.2206C118.831 73.4412 119.474 73.5743 120.126 73.6161C120.873 73.7035 121.623 73.7531 122.374 73.7646C123.205 73.7833 124.064 73.7925 124.951 73.7921C125.853 73.7921 126.732 73.7635 127.562 73.7068C128.393 73.6502 129.103 73.5814 129.655 73.5072C131.546 73.2833 131.809 71.9028 131.845 71.4815C131.879 71.0612 131.819 70.6386 131.669 70.2447C131.519 69.8507 131.284 69.4955 130.979 69.2051L109.239 46.2255ZM170.449 46.2255V45.9258L190.032 26.1065C190.342 25.7941 191.287 24.8415 191.102 23.6057C191.031 23.125 190.664 21.9848 188.87 21.7841C188.164 21.694 187.453 21.6437 186.741 21.6334C185.108 21.596 183.347 21.5872 181.746 21.662C180.947 21.6994 180.288 21.7368 179.72 21.7786C179.04 21.8114 178.374 21.983 177.761 22.2829C177.269 22.5948 176.819 22.9693 176.422 23.3972L158.968 41.352C158.857 41.475 158.728 41.5795 158.585 41.6616C158.363 41.7129 158.135 41.7325 157.908 41.7199H155.554V4.08178C155.554 2.86683 155.211 1.98188 154.533 1.45168C153.822 0.957887 152.967 0.71969 152.105 0.775733H138.854C138.269 0.744941 137.688 0.898787 137.194 1.21573C136.933 1.41912 136.715 1.67287 136.553 1.96207C136.391 2.25128 136.288 2.57011 136.251 2.89983C136.162 3.40092 136.11 3.90763 136.092 4.41618C136.074 4.91082 136.064 5.42415 136.064 5.95618C136.064 6.48822 136.073 7.00155 136.092 7.49618C136.11 8.0051 136.163 8.51217 136.251 9.01363C136.29 9.3423 136.394 9.6599 136.556 9.94817C136.718 10.2364 136.935 10.4897 137.194 10.6933C137.689 11.0106 138.27 11.1644 138.856 11.1333H143.4V70.706C143.36 71.3376 143.501 71.9676 143.807 72.521C144.038 72.823 144.332 73.0719 144.666 73.2514C145.001 73.4309 145.37 73.5369 145.749 73.5622C146.363 73.6386 146.981 73.6975 147.586 73.7354C148.846 73.8119 150.11 73.8119 151.37 73.7354C151.975 73.6975 152.593 73.6386 153.231 73.5589C153.606 73.5315 153.97 73.4249 154.3 73.246C154.63 73.0671 154.919 72.8201 155.148 72.521C155.453 71.9675 155.594 71.3376 155.553 70.706V51.2531H157.798C158.021 51.2424 158.245 51.2609 158.464 51.3081C158.6 51.3801 158.722 51.4754 158.826 51.5897L177.817 71.971C178.256 72.4997 178.805 72.9261 179.425 73.2206C180.04 73.4412 180.683 73.5743 181.336 73.6161C182.082 73.7035 182.832 73.7531 183.584 73.7646C184.414 73.7833 185.273 73.7925 186.16 73.7921C187.062 73.7921 187.941 73.7635 188.772 73.7068C189.602 73.6502 190.312 73.5814 190.864 73.5072C192.755 73.2833 193.018 71.9028 193.054 71.4815C193.088 71.0612 193.028 70.6386 192.879 70.2447C192.729 69.8507 192.493 69.4955 192.189 69.2051L170.449 46.2255ZM245.496 27.9375C243.103 25.5618 240.199 23.7699 237.008 22.6998C229.418 20.3565 221.303 20.3565 213.714 22.6998C210.523 23.7692 207.62 25.5604 205.227 27.9353C202.905 30.336 201.163 33.242 200.139 36.4278C198.984 40.0605 198.423 43.8569 198.477 47.6698C198.477 56.1206 200.734 62.7558 205.185 67.3906C209.65 72.0409 216.438 74.3998 225.359 74.3998C234.28 74.3998 241.069 72.0425 245.533 67.3939C249.984 62.7585 252.242 56.1233 252.242 47.6731C252.296 43.8606 251.736 40.0643 250.582 36.4317C249.558 33.2456 247.818 30.3391 245.496 27.9375ZM225.359 30.8635C227.766 30.7945 230.163 31.1984 232.416 32.0526C234.147 32.7424 235.675 33.8624 236.856 35.3075C238.044 36.8454 238.889 38.6216 239.335 40.516C239.896 42.8582 240.167 45.261 240.141 47.6698C240.167 50.0792 239.896 52.4826 239.335 54.8253C238.889 56.7196 238.044 58.4958 236.856 60.0338C235.674 61.4786 234.147 62.5985 232.416 63.2887C227.844 64.8742 222.874 64.8742 218.301 63.2887C216.571 62.5985 215.043 61.4786 213.861 60.0338C212.673 58.4959 211.828 56.7198 211.382 54.8253C210.821 52.4825 210.551 50.0792 210.576 47.6698C210.551 45.2604 210.822 42.8571 211.383 40.5143C211.828 38.6198 212.674 36.8436 213.862 35.3058C215.044 33.8608 216.571 32.7408 218.302 32.0509C220.555 31.1975 222.952 30.7942 225.359 30.8635ZM300.689 23.5716L300.673 23.4522C300.604 22.9292 300.409 22.4308 300.106 22.0002C299.641 21.4882 298.999 21.1735 298.311 21.1202C297.737 21.0404 297.159 20.9903 296.579 20.9701C296.02 20.9514 295.311 20.942 294.453 20.942C291.481 20.8876 288.53 21.4633 285.794 22.6316C283.373 23.7169 281.192 25.2755 279.377 27.2164L278.945 24.2178C278.913 23.8137 278.79 23.422 278.586 23.0722C278.382 22.7223 278.102 22.4234 277.767 22.1977C277.165 21.85 276.477 21.6819 275.783 21.7131H264.177C263.591 21.6823 263.01 21.8362 262.515 22.1531C262.255 22.3563 262.037 22.6094 261.875 22.8979C261.713 23.1864 261.61 23.5044 261.571 23.8334C261.483 24.3347 261.43 24.8416 261.413 25.3503C261.394 25.8449 261.385 26.3583 261.384 26.8903C261.384 27.4223 261.394 27.9356 261.413 28.4303C261.43 28.9385 261.483 29.4448 261.571 29.9455C261.61 30.2753 261.713 30.5941 261.876 30.8831C262.038 31.1722 262.256 31.4258 262.518 31.6291C263.012 31.9456 263.592 32.0994 264.177 32.0691H268.721V70.6994C268.68 71.331 268.821 71.961 269.127 72.5144C269.359 72.8164 269.652 73.0655 269.987 73.2449C270.322 73.4245 270.691 73.5303 271.07 73.5556C271.684 73.632 272.302 73.6909 272.906 73.7288C273.51 73.7668 274.153 73.7838 274.798 73.7838C275.444 73.7838 276.08 73.7646 276.69 73.7288C277.3 73.6931 277.913 73.632 278.551 73.5523C278.926 73.5253 279.291 73.4189 279.622 73.24C279.953 73.0611 280.242 72.8138 280.471 72.5144C280.776 71.9609 280.917 71.331 280.877 70.6994V47.0098C280.848 44.7716 281.108 42.539 281.651 40.368C282.072 38.6588 282.851 37.0593 283.935 35.676C284.972 34.4175 286.304 33.4373 287.811 32.8231C289.702 32.0941 291.718 31.7464 293.743 31.8001C294.677 31.8001 295.467 31.8091 296.114 31.8271C296.747 31.8447 297.296 31.8711 297.749 31.9063C298.429 32.0133 299.125 31.8623 299.701 31.4828C300.157 31.0993 300.461 30.5651 300.56 29.9763C300.643 29.5633 300.711 29.0793 300.771 28.4979C300.831 27.9105 300.861 27.3203 300.861 26.7297C300.861 26.15 300.842 25.5714 300.803 25.012C300.767 24.4664 300.729 23.9863 300.689 23.5716ZM357.612 1.44068C357.38 1.13877 357.087 0.889846 356.752 0.710436C356.417 0.531026 356.048 0.425234 355.669 0.400083C355.06 0.323633 354.442 0.264783 353.832 0.226283C352.572 0.149833 351.308 0.149833 350.048 0.226283C349.438 0.264783 348.821 0.323083 348.186 0.402833C347.811 0.429707 347.447 0.536044 347.116 0.714839C346.785 0.893634 346.496 1.14083 346.267 1.44013C345.962 1.99378 345.821 2.62366 345.862 3.25513V25.6984L345.829 25.6775C345.457 25.4394 344.93 25.0681 344.264 24.5737C343.318 23.9016 342.299 23.3404 341.226 22.9011C339.756 22.2979 338.232 21.8374 336.674 21.5261C334.525 21.1081 332.339 20.9131 330.15 20.9442C326.951 20.9265 323.77 21.435 320.733 22.4496C317.776 23.4438 315.081 25.0975 312.849 27.2868C310.479 29.6906 308.666 32.5902 307.539 35.7788C306.267 39.1894 305.622 43.3386 305.622 48.1098C305.622 52.9267 306.279 57.0545 307.579 60.3792C308.73 63.498 310.585 66.3063 312.999 68.5836C315.302 70.6753 318.05 72.2107 321.034 73.0727C324.14 73.9699 327.357 74.4168 330.588 74.3998C332.756 74.435 334.921 74.2189 337.039 73.7558C338.577 73.4072 340.077 72.9057 341.517 72.2587C342.57 71.7903 343.561 71.1905 344.465 70.4734C345.103 69.9421 345.589 69.5266 345.925 69.2271L345.934 69.2199H346.018L346.51 71.3732C346.63 72.0276 346.98 72.6171 347.496 73.0342C347.979 73.3544 348.531 73.5529 349.107 73.6128L349.168 73.621C350.254 73.737 351.344 73.7946 352.436 73.7937C353.04 73.7937 353.578 73.7842 354.05 73.7651C354.556 73.7447 355.061 73.6957 355.561 73.6183C355.951 73.5688 357.138 73.4197 357.665 72.4363C357.924 71.8988 358.046 71.305 358.02 70.7082V3.25513C358.06 2.62351 357.918 1.99377 357.612 1.44068ZM346.794 47.6698C346.821 50.0995 346.559 52.5237 346.013 54.8908C345.584 56.7822 344.748 58.5563 343.564 60.0888C342.399 61.5208 340.89 62.6311 339.18 63.3151C334.694 64.8654 329.821 64.8654 325.336 63.3151C323.626 62.6313 322.117 61.5214 320.952 60.0899C319.769 58.5574 318.933 56.7832 318.504 54.8919C317.958 52.5244 317.695 50.0999 317.722 47.6698C317.695 45.2402 317.958 42.816 318.504 40.4489C318.933 38.5581 319.769 36.7845 320.952 35.2525C322.117 33.8205 323.626 32.7102 325.337 32.0262C329.823 30.4763 334.695 30.4763 339.181 32.0262C340.891 32.7103 342.4 33.8206 343.565 35.2525C344.749 36.7849 345.585 38.5591 346.014 40.4505C346.559 42.8171 346.821 45.2407 346.794 47.6698ZM424.25 35.3273L424.241 35.264C424.207 34.8649 424.068 34.4821 423.838 34.1544C423.609 33.8268 423.297 33.5659 422.935 33.3984C422.485 33.2108 422.002 33.1172 421.516 33.1234H406.904V18.4137C406.911 17.9193 406.812 17.4293 406.612 16.9776C406.427 16.622 406.154 16.3202 405.82 16.1015C405.485 15.8828 405.1 15.7545 404.702 15.7291L404.635 15.7203C403.349 15.5986 402.058 15.5417 400.766 15.5498C399.53 15.5393 398.293 15.5979 397.063 15.7253L397.001 15.7341C396.613 15.7664 396.24 15.8983 395.917 16.1172C395.594 16.3361 395.332 16.6347 395.157 16.9842C394.958 17.434 394.859 17.922 394.866 18.4142V33.1212H380.182C379.692 33.1137 379.206 33.2134 378.758 33.4133C378.41 33.589 378.113 33.8516 377.895 34.1759C377.677 34.5001 377.546 34.8752 377.514 35.2651L377.504 35.3267C377.274 37.8955 377.274 40.4799 377.504 43.0487L377.515 43.1274C377.547 43.5176 377.679 43.893 377.897 44.2175C378.115 44.542 378.412 44.8047 378.761 44.9803C379.209 45.1798 379.694 45.2793 380.184 45.2718H394.865V59.9794C394.857 60.4716 394.956 60.9595 395.155 61.4094C395.33 61.7596 395.591 62.0587 395.915 62.278C396.238 62.4974 396.612 62.6295 397 62.6617L397.062 62.6711C398.292 62.7986 399.529 62.8572 400.765 62.8465C402.057 62.8536 403.348 62.7956 404.634 62.6727L404.696 62.665C405.097 62.641 405.484 62.5129 405.82 62.2933C406.155 62.0736 406.429 61.77 406.613 61.4121C406.812 60.9623 406.911 60.4743 406.903 59.9821V45.2724H421.515C422.002 45.2784 422.485 45.1848 422.934 44.9974C423.297 44.8297 423.608 44.5687 423.838 44.2409C424.067 43.913 424.206 43.53 424.241 43.1307L424.251 43.0504C424.481 40.4812 424.481 37.8964 424.25 35.3273Z" fill="#202E59"/>
</svg>
